<svg width="577" height="577" viewBox="0 0 577 577" fill="none" xmlns="http://www.w3.org/2000/svg">
<g clip-path="url(#clip0_101_38)">
<g clip-path="url(#clip1_101_38)">
<path d="M0 288.228C0 129.045 129.045 0 288.228 0C447.412 0 576.457 129.045 576.453 288.228C576.453 447.412 447.409 576.457 288.228 576.453C129.045 576.453 0 447.409 0 288.228H0ZM288.228 559.404C437.995 559.404 559.408 437.995 559.404 288.228C559.404 138.461 437.995 17.0489 288.228 17.0489C138.461 17.0489 17.0489 138.458 17.0489 288.228C17.0489 437.995 138.458 559.408 288.228 559.404Z" fill="#FF5858"/>
<g clip-path="url(#clip2_101_38)">
<g clip-path="url(#clip3_101_38)">
<path d="M443.944 309.11C437.529 291.96 424.825 278.337 408.166 270.757C399.164 266.658 389.626 264.593 379.798 264.593C367.522 264.593 355.799 268.031 345.563 273.949L285.553 198.867C286.799 196.89 287.945 194.838 288.94 192.678C300.952 166.275 289.254 135.01 262.869 122.998C255.963 119.851 248.635 118.258 241.099 118.258C220.519 118.258 201.707 130.345 193.171 149.069C181.152 175.466 192.856 206.724 219.253 218.767C226.16 221.915 233.494 223.508 241.024 223.508C252.098 223.508 262.605 219.907 271.337 213.744L329.609 286.641C324.705 291.923 320.512 297.922 317.44 304.684C311.358 318.006 309.81 332.605 312.693 346.688L225.738 378.349C220.311 369.334 212.36 362.15 202.576 357.699C195.67 354.545 188.336 352.953 180.793 352.953C160.219 352.953 141.408 365.053 132.896 383.757C127.066 396.537 126.563 410.835 131.492 423.999C136.415 437.157 146.167 447.62 158.96 453.437C165.873 456.585 173.207 458.197 180.768 458.197C201.33 458.197 220.116 446.096 228.64 427.38C232.953 417.873 234.325 407.573 232.739 397.519L319.681 365.859C326.726 378.853 337.687 389.241 351.38 395.467C360.395 399.565 369.933 401.637 379.779 401.637C406.573 401.637 431.045 385.879 442.125 361.508C449.705 344.863 450.366 326.259 443.944 309.11ZM210.055 418.906C204.836 430.357 193.334 437.767 180.743 437.767C176.141 437.767 171.652 436.785 167.396 434.859C159.564 431.283 153.596 424.886 150.581 416.834C147.559 408.776 147.867 400.038 151.437 392.2C156.656 380.748 168.171 373.325 180.768 373.325C185.364 373.325 189.853 374.32 194.083 376.253C201.928 379.816 207.896 386.225 210.899 394.271C213.915 402.323 213.625 411.074 210.055 418.906Z" fill="#FF5858"/>
</g>
</g>
</g>
</g>
<defs>
<clipPath id="clip0_101_38">
<rect width="576.454" height="576.454" fill="white"/>
</clipPath>
<clipPath id="clip1_101_38">
<rect width="576.454" height="576.454" fill="white"/>
</clipPath>
<clipPath id="clip2_101_38">
<rect width="320.199" height="339.939" fill="white" transform="translate(128.128 118.258)"/>
</clipPath>
<clipPath id="clip3_101_38">
<rect width="320.199" height="339.939" fill="white" transform="translate(128.128 118.258)"/>
</clipPath>
</defs>
</svg>
